<svg id="Layer_1" data-name="Layer 1" xmlns="http://www.w3.org/2000/svg" viewBox="0 0 1024 322"><defs><style>.cls-1{fill:#453c90;}.cls-2{fill:#d40058;}</style></defs><path class="cls-1" d="M84.3,201c-.39-.05-1-.16-2-.32l-2.19-.42a99.56,99.56,0,0,1-27.25-9.93l.29-1.75c2.15-13.6,4.38-27.63,10-40.33a11.09,11.09,0,0,0,2.75-4.91l21.43.69c1.84,0,3.23,0,4.17.08h0a9.82,9.82,0,0,0,4.87-1.63,9.64,9.64,0,0,0,5.19,1.49,9.3,9.3,0,0,0,6.8-2.85c3.88,1.91,7.61,3.54,12.32,3.54h1a84.36,84.36,0,0,0,15.45-2.74c5-1.21,10.41-2.67,15.93-4.3a118.94,118.94,0,0,1-13.53,12.93,130,130,0,0,1-21.75,12.71,42.7,42.7,0,0,0-11.12,8,36.51,36.51,0,0,0-5.42,7.91c-.36.62-.7,1.26-1.08,1.9-.69,1.17-1.47,2.3-2.31,3.49a30.61,30.61,0,0,0-4.12,7.2c-1.1,3.13-2,6.39-3,9.51l-.19.61c-2.13-.21-4.22-.5-6.28-.84m41-36.8c7.6,10.37,18.76,16.5,30.23,21.85a100.23,100.23,0,0,1-54.86,16.34c-2,0-3.9-.07-5.82-.18.88-3,1.8-6.08,2.84-9a26.35,26.35,0,0,1,3.6-6.18,41.12,41.12,0,0,0,2.51-3.81c.37-.63.73-1.28,1.1-1.94a32.17,32.17,0,0,1,4.75-7,38.12,38.12,0,0,1,10-7.17ZM56.71,50.55a249.64,249.64,0,0,0-4.2-37.19,100.63,100.63,0,0,1,110.65,9.56A23.71,23.71,0,0,0,161.34,25a26.2,26.2,0,0,0-3.51,6.89c-.33.81-.63,1.64-1,2.44l-1.34,3a98.19,98.19,0,0,1-8.07,15.7,61.21,61.21,0,0,1-8.81,9.8c-2.12,2.05-4.29,4.16-6.28,6.45-.52.68-1.05,1.4-1.62,2.1l-3.9-3.56c-.27-.51-.57-1.06-.9-1.63a6.66,6.66,0,0,1-1.31-3.6c.13-1.29,2-2.73,3.37-3.89.4-.34.81-.67,1.15-1a2,2,0,0,0,.71-1.44,2,2,0,0,0-.53-1.51,2.06,2.06,0,0,0-1.43-.71,2,2,0,0,0-1.5.52c-.31.28-.67.58-1,.87-2,1.54-4.38,3.6-4.86,6.44a9.76,9.76,0,0,0,1.8,6.39l.23.44c-.43.59-.85,1.23-1.29,1.9-2,3.15-3.51,5.17-5.52,4.9-5.13-.78-6.22,2.12-7.26,4.9s-1.79,6.72,3.48,8.89l1.46.62a39.41,39.41,0,0,0,5.95,2.13,25.33,25.33,0,0,0,3.45.57l4.73.19c3.24.17,6.48.33,9.72.56a54.69,54.69,0,0,1,13.07,2.22c2.6.82,4.2,3.4,5.43,5.72,2,3.79,3.94,7.94,6.26,13.48a83.82,83.82,0,0,0,5.78,10.93c.27.44.53.9.81,1.36a30.49,30.49,0,0,1-3.34,1.64,194.06,194.06,0,0,1-29.4,9.09,79.79,79.79,0,0,1-14.47,2.57c-4.08.25-7.37-1.26-11.1-3a9.22,9.22,0,0,0,.33-2.45,8.58,8.58,0,0,0-6.76-8.68c.12-1.72.26-3.51.44-5.15a72.22,72.22,0,0,0,.6-9.64c-.05-1.75-.17-3.5-.28-5.24-.11-2-.26-4-.26-6v-1c0-6-.09-14.91-6.75-18a29.17,29.17,0,0,0-14.45-2.06,30.18,30.18,0,0,0-3.78.54c-2.59.45-5.61,1-7.22.13-1.08-.56-1.46-2.29-1.71-4.09a43.33,43.33,0,0,1-.27-6V68.31c0-2.82-.19-5.65-.39-8.37l-.2-3.28c-.06-1-.15-2.15-.23-3.26a36.62,36.62,0,0,1,0-9.81c.9-4.62,1.66-9.2,2.29-13.08a2.07,2.07,0,1,0-4.09-.68c-.67,3.84-1.4,8.38-2.29,12.94a39.16,39.16,0,0,0-.09,10.92c.08,1.16.15,2.24.22,3.26s.21,2.15.21,3.28c.18,2.71.37,5.47.37,8.17v1.37a49.07,49.07,0,0,0,.31,6.53c.26,1.8,1,5.71,4,7.2s6.58.83,9.81.26a30.19,30.19,0,0,1,3.24-.49,25.22,25.22,0,0,1,12.53,1.78c4.37,1.93,4.37,9.23,4.37,14.14v1c0,2.09.15,4.17.28,6.26.11,1.7.26,3.46.26,5.09a72.62,72.62,0,0,1-.57,9.09c-.18,1.77-.36,3.6-.47,5.43a8.67,8.67,0,0,0-7.39,8.84,9.09,9.09,0,0,0,1.09,4.33,5.24,5.24,0,0,1-3.08.62L66.19,139a11.19,11.19,0,0,0-1.61-4.91c-6-13-7.58-27.68-9.21-41.87l-.29-2.38a379.59,379.59,0,0,0,1.63-39.32m23.09,2h0a23,23,0,0,0,.26,5c.12,1,.83,4.86,1.73,5.31s3.23,0,4.15,0H96.48v-8H94.09V44.7H83.47c-1.2,0-1.67-.24-2.29.54C80,46.79,79.9,50.71,79.8,52.58m-33.48,78.5c-.26,5.92-.48,12-.62,18.24-5.81-.64-11.34-3.35-11.34-9.09s5.88-8.64,12-9.15m5.84.3a16.72,16.72,0,0,1,6,2.12,7.69,7.69,0,0,1,4,6.73c0,5.28-5,8.16-10.54,9,.09-6.07.29-12,.54-17.82m126.26-5.48,21-5.29A100.46,100.46,0,0,1,188.34,151a100.06,100.06,0,0,0-8.51-10.74,16.23,16.23,0,0,0-4.56-3,17.81,17.81,0,0,1-2.67-1.63,9.78,9.78,0,0,1-2.62-4.42,36.32,36.32,0,0,0,8.1-5.29,1,1,0,0,0,.34,0m5-13a54,54,0,0,1-7.51,9.47,29.41,29.41,0,0,1-3.57,2.71c-.29-.47-.57-1-.84-1.43a83.11,83.11,0,0,1-5.59-10.5c-2.43-5.66-4.41-9.92-6.48-13.82A20.7,20.7,0,0,0,156.52,95l-3.39-43.15A129.48,129.48,0,0,0,159.25,39l1.3-3c.37-.83.72-1.71,1-2.58a23.51,23.51,0,0,1,2.91-5.85,25.68,25.68,0,0,1,1.79-2,100.46,100.46,0,0,1,34,62.44L199,90c-4.55,6.82-9.26,13.86-14,20.69-.58.76-1.1,1.53-1.63,2.29M137.56,89.22c-3.29-.23-6.59-.4-9.88-.59l-3.44-.16.83-1.31a118.42,118.42,0,0,1,10.5-15.08c1.86-2.17,4-4.21,6-6.17a79.67,79.67,0,0,0,7.84-8.38l2.69,34.32-.43-.2a58,58,0,0,0-14.13-2.43m49.24,26.1,1.55-2.24c4.28-6.13,8.47-12.41,12.59-18.56.16,2.33.29,4.79.29,7.23a101.15,101.15,0,0,1-1,14.33l-17,4.28c1.26-1.64,2.43-3.41,3.58-5M128.22,74.8c-2.39,3.32-4.58,6.77-6.72,10.16l-1.81,2.9A40.13,40.13,0,0,1,115,86.11l-1.43-.65c-1.81-.76-2.14-1-1.18-3.55s1-2.55,2.76-2.29c4.75.69,7.59-3.59,9.61-6.73l.51-.77ZM52.36,127.12c.31-6.45.81-13,1.33-19.44a118.37,118.37,0,0,0,5,21.36,22.61,22.61,0,0,0-6.33-1.92M33.53,148.47A288.14,288.14,0,0,1,46,186.25,100.82,100.82,0,0,1,5.13,133.5l.1-.13,1.25-.85a25,25,0,0,0,5.64-4.61c2,1.49,4,3,5.85,4.61,1.4,1.14,2.8,2.29,4.23,3.4a42.71,42.71,0,0,0,4.64,3c1.23.72,2.37,1.41,3.46,2.18a11.5,11.5,0,0,0,3.23,7.22ZM4,81.73c-.55-.52-1.12-1-1.61-1.44a100.54,100.54,0,0,1,21.06-43l.38,7.12c.62,12,1.25,24.35,2.45,36.49l.12.93c.32,2.92.23,3.93-.94,4.56a11.61,11.61,0,0,1-4.28.76c-.6,0-1.19.13-1.73.13a28.11,28.11,0,0,0-2.84.48c-2.15.38-4.6.88-5.75,0-2.35-1.85-4.63-4-6.86-6M1.4,85c2.23,2.06,4.52,4.17,7,6l.4.28.78,25.46a25.17,25.17,0,0,0,.19,2.53,16.28,16.28,0,0,1,0,4.41c-.42,1.94-3.35,3.91-5.49,5.35l-.37.24A100.13,100.13,0,0,1,0,101.75,102.06,102.06,0,0,1,1.4,85m184.34,69.57.28.45a101.19,101.19,0,0,1-26.52,28.37c-11.56-5.45-23.06-11.31-30.51-21.24a98.79,98.79,0,0,0,13.09-8.32,121,121,0,0,0,14.27-13.64c1.75-1.87,3.5-3.72,5.29-5.53,1.52-.56,3-1.12,4.53-1.75a13.08,13.08,0,0,0,3.94,6.08,20,20,0,0,0,3.24,1.95,12.31,12.31,0,0,1,3.48,2.19,102.84,102.84,0,0,1,8.91,11.44M96.57,134.94A4.78,4.78,0,0,1,98,131.41a4.61,4.61,0,0,1,3.56-1.27,5.35,5.35,0,0,1,3.49,1.2,4.57,4.57,0,0,1,1.48,3.6,5,5,0,1,1-10,0m-45,18.5a23.62,23.62,0,0,0,6.18-1.59A136.25,136.25,0,0,0,52,173.46c-.11-2.67-.24-5.34-.32-8-.12-4.06-.12-8.06-.12-12.06m-6.2-39.22c.37-1.39.74-2.78,1.15-4.09l1.54-5.36c-.6,7.34-1.18,14.76-1.54,22.15A25.17,25.17,0,0,0,40.43,128a32.05,32.05,0,0,0,2.27-4.9c1-2.93,1.87-6,2.66-8.92m.47,51.46c.08,2.52.2,5,.31,7.55-2.13-7.18-4.45-14.37-7.23-21.38a23.08,23.08,0,0,0,6.79,1.63c0,4,0,8.1.13,12.2M28,44.08c-.19-3.75-.4-7.51-.61-11.29A101.33,101.33,0,0,1,47,16.47a231.6,231.6,0,0,1,3.71,34.15,346.5,346.5,0,0,1-1.29,35.7L42.9,109c-.41,1.39-.78,2.81-1.17,4.21-.78,2.88-1.59,5.85-2.58,8.66a37.17,37.17,0,0,1-3,6.07c-.52,1-1.08,2.06-1.62,3.1a11.7,11.7,0,0,0-3.76,5.36l-1.93-1.14a39.88,39.88,0,0,1-4.19-2.7c-1.4-1-2.79-2.14-4.17-3.27-2.15-1.75-4.38-3.61-6.67-5.24a20.18,20.18,0,0,0,0-5.15,22.27,22.27,0,0,1-.18-2.23L13,92.37a24.52,24.52,0,0,0,4.34-.61,12.09,12.09,0,0,1,2.41-.42l1.63-.11a14.76,14.76,0,0,0,6-1.23c4-2,3.54-6.09,3.23-8.78l-.09-.86C29.24,68.35,28.61,56,28,44.08"/><path class="cls-2" d="M260.31,193.29h0a4.53,4.53,0,1,1,0,9.06c-23.82,0-46.54-10.22-64-28.78a4.78,4.78,0,0,1-1-5.12,4.54,4.54,0,0,1,4.14-2.69,4.94,4.94,0,0,1,3.59,1.64c15.68,16.72,36,25.9,57.29,25.9M278.64,9.91v0a4.43,4.43,0,0,1,.49-8.82h.55a80.45,80.45,0,0,1,51.94,27.19,4.42,4.42,0,0,1,0,5.81,4.6,4.6,0,0,1-3.37,1.52,4.45,4.45,0,0,1-3.41-1.54,71.6,71.6,0,0,0-46.2-24.19m.41,104.85c-1.47-.38-2.95-.75-4.4-1.07V93.58c3.91,1,6.09,2.65,7,5.35a39.48,39.48,0,0,1,1.47,7.39,41.08,41.08,0,0,0,1.87,8.91c.11.32.25.62.37.93-2.09-.35-4.22-.88-6.32-1.4M287,97.06c-2.09-6-7.47-8.18-12.24-9.22V67.24A68.14,68.14,0,0,1,335,103.39l-3.9,3.08c-.41.32-.84.71-1.28,1.11A15.21,15.21,0,0,1,328,109.1h-.2c-.8-.33-10.31-5.94-11.73-6.87a2.1,2.1,0,0,0-2.32,3.5l.64.31-3.5,1.24-1,.33a6,6,0,0,0-4.43,3.66,17.8,17.8,0,0,0-.69,1.84,28.23,28.23,0,0,1-1.38,3.43c-1.8.09-7.63,0-11.62,0a32.77,32.77,0,0,1-1.44-3.27,38.69,38.69,0,0,1-1.64-7.76A44.43,44.43,0,0,0,287,97.06m5.19,102.58a.83.83,0,0,0-.17.15,70.13,70.13,0,0,1-10,1.9c-2.45.26-3.67.82-5.5-.41a4,4,0,0,1-1.87-3.27V153.54L294,196.06c-.67,1.18-1.26,2.39-1.81,3.58m23.22-36.47c3.59,5.43,9.37,8.91,14.26,11.37A67.57,67.57,0,0,1,314.9,189l-4-5.74a2.14,2.14,0,0,0-1.47-.87,2.11,2.11,0,0,0-1.63.5L297.29,192l-.32.32-22.25-49V118c1.11.26,2.24.52,3.37.82a64.6,64.6,0,0,0,9.46,1.87,35.09,35.09,0,0,0,9.5,11.2c2.35,1.7,7.79,4.67,12.17,3.74a6.53,6.53,0,0,0,4.45-3.27,16.48,16.48,0,0,0,1.63-6.54c.54-6.74,2.57-7.28,3.89-6.4,2.61,1.74,1.1,6.16-.91,10.65l-.41.93a62.8,62.8,0,0,0-5.45,15.8,22.53,22.53,0,0,0,3,16.36m23.05-43.69c.93.47,1.88.82,2.82,1.25a66.91,66.91,0,0,1-8.55,49.18h-.1c-4.35-2.23-9.54-5.29-12.54-9.81A16.89,16.89,0,0,1,318,147.77a57.33,57.33,0,0,1,5-14.35l.41-.93c1.75-3.9,5.34-13.09-1.82-17.28-12.33-7.21-9.2,12.48-12.82,14.57-.24.12-.3.38-.71.48-1.83.36-5.51-1.12-7.69-2.76a27.74,27.74,0,0,1-6.16-6.54h3.91a29,29,0,0,0,7.2-.48c1.52-.86,2.36-3,3.37-5.87a15.41,15.41,0,0,1,.56-1.49c.41-.93.47-1,1.88-1.41l1.13-.35,5.39-1.92.72-.29c.21-.1.6-.3.5-.3.39.09,7.08,4,7.08,4l4.91,2.71a2.12,2.12,0,0,0,1,.27,2.1,2.1,0,0,0,1-3.93l-1-.53c.24-.22.32-.3.7-.63s.73-.67,1.09-.94l3.16-2.54a71.16,71.16,0,0,1,3.12,8.36,2.08,2.08,0,1,0-1.53,3.87m-27,72a67.16,67.16,0,0,1-13.75,6.67A11.79,11.79,0,0,1,300,195.2l8.71-7.58ZM231.4,101,215.53,87.09A114.27,114.27,0,0,0,201,44L213.38,54.5A4.73,4.73,0,0,1,215,57.37a50.87,50.87,0,0,1,1.48,7.84,67.43,67.43,0,0,0,1.2,6.91,31.42,31.42,0,0,0,7.82,15.55A26.86,26.86,0,0,0,245.23,96a31.33,31.33,0,0,0,3.88-.24c4.95-.62,9.88-1.53,14.66-2.54v18L238,104.09c-.45-.15-1-.27-1.63-.41a13.35,13.35,0,0,1-2.78-.78,6.74,6.74,0,0,1-1.38-1.17Zm5.56,7.16,26.87,7.39v19.16A67.18,67.18,0,0,1,215.64,114a113.29,113.29,0,0,0,.75-12.75c0-2.71-.11-5.39-.3-8.06l12.55,10.94c.21.18.42.39.65.61a10.16,10.16,0,0,0,2.42,1.9,15.21,15.21,0,0,0,3.79,1.14c.52.11,1,.21,1.46.34M259.72,1.2C264.16,1,263.83,6,263.83,6V87.59c-5,1-10.2,2-15.33,2.68a21.75,21.75,0,0,1-18.88-6.36,25.78,25.78,0,0,1-6.42-13c-.47-2-.75-4-1-6.15l.32.19a13.74,13.74,0,0,0,7,2.84,9.32,9.32,0,0,0,4.8-1.34c1.23-.69,1.8-.84,2.34-.69a19.07,19.07,0,0,1,5.63,3c.92.68,1,.77-.49,3.58l-.39.74a2.81,2.81,0,0,0,1.18,3.78,2.94,2.94,0,0,0,1.3.32,2.77,2.77,0,0,0,2.48-1.5l.37-.69c1.33-2.53,3.82-7-1.09-10.71a24.23,24.23,0,0,0-7.39-4,8.44,8.44,0,0,0-6.35,1.06,4.26,4.26,0,0,1-2.25.75c-3.51-.34-8.06-4-8.55-4-.2-.85-.4-1.44-.66-2.29a10.1,10.1,0,0,0-3.38-5.53L204.4,39.54a2.67,2.67,0,0,0-1.16-.56,67.6,67.6,0,0,1,18.29-23l.12.24a2.08,2.08,0,0,0,1.91,1.23,2,2,0,0,0,.87-.18,2.1,2.1,0,0,0,1-2.78l-.5-1.11A66.72,66.72,0,0,1,259.72,1.2m42.56,92.59a2.09,2.09,0,0,0,.17,3c1.39,1.26,2.81,2.52,4.26,3.75a2.11,2.11,0,0,0,2.71-3.23c-1.4-1.18-2.8-2.41-4.16-3.64a2.11,2.11,0,0,0-3,.16m-6.54-9.7v0a2.1,2.1,0,0,0-3.49,2.34,13.3,13.3,0,0,0,1.36,1.64l1.64,1.63,1,1.08a2,2,0,0,0,1.53.65,2.18,2.18,0,0,0,1.45-.56,2.15,2.15,0,0,0,.09-3l-1-1.06c-.58-.51-1.1-1.07-1.64-1.63a11.16,11.16,0,0,1-.93-1.13m-9.67-12.72,0,0a2.07,2.07,0,0,0-.35,2.91,21.35,21.35,0,0,1,2.62,4.38,2.09,2.09,0,0,0,1.88,1.18,2.07,2.07,0,0,0,.92-.21,2.08,2.08,0,0,0,1-2.8,27,27,0,0,0-3.15-5.2,2.08,2.08,0,0,0-1.41-.77,2.06,2.06,0,0,0-1.53.48m-56.6-41a2.11,2.11,0,0,0,.75-.08,2.08,2.08,0,0,0,1.14-1.15,2,2,0,0,0,0-1.61c-.34-.82-.7-1.66-1.07-2.45l-1.2-2.87A2.1,2.1,0,0,0,225.24,24l1.25,2.77c.36.73.7,1.56,1,2.37a2.08,2.08,0,0,0,1.93,1.27m7.71,12.22a2.11,2.11,0,0,0,.53-2.93c-.79-1.13-1.61-2.35-2.3-3.58-.2-.32-.39-.67-.57-1a2.1,2.1,0,1,0-3.71,2c.19.4.4.77.61,1.14.79,1.38,1.68,2.69,2.51,3.9A2.13,2.13,0,0,0,236,43a2.21,2.21,0,0,0,1.19-.38m11.25,8.86A2.1,2.1,0,0,0,247,48.82l-2.09-.65a8.13,8.13,0,0,1-2.25-1,2.39,2.39,0,0,1-.44-.46,2.1,2.1,0,0,0-3.29,2.62,7.44,7.44,0,0,0,1.19,1.19,11.84,11.84,0,0,0,3.62,1.63l.68.22.51.16.87.28a2.22,2.22,0,0,0,1.44,0,2.14,2.14,0,0,0,1.18-1.33m12.34,5a2.1,2.1,0,0,0-1.18-2.73l-5.29-2.09a2.07,2.07,0,0,0-2.07.31,2.11,2.11,0,0,0-.78,2,2.14,2.14,0,0,0,1.31,1.64L258,57.69a2.4,2.4,0,0,0,.79.15,2.12,2.12,0,0,0,1.95-1.33"/><path class="cls-1" d="M521.27,89.91a22.22,22.22,0,0,1-16.39,7.21c-14.68,0-25.33-11.55-25.33-27.42,0-16.94,13.16-27.41,25.33-27.41a21.88,21.88,0,0,1,16.39,7.05V21.64a.87.87,0,0,1,.88-.87h8.63a.88.88,0,0,1,.88.87V94.75a.89.89,0,0,1-.88.87h-8.63a.88.88,0,0,1-.88-.87ZM489.94,69.7c0,8.88,4.06,18.42,15.67,18.47,9.81,0,15.66-9.4,15.66-18.47,0-11.57-5.85-18.47-15.66-18.47-10.81,0-15.67,9.58-15.67,18.47m52.34,25.9a.85.85,0,0,1-.87-.87V44.56a.86.86,0,0,1,.87-.86h7.91a.86.86,0,0,1,.87.79l.51,5a21.23,21.23,0,0,1,16.54-7.2c13,0,19.64,8.5,19.64,25.23V94.73a.89.89,0,0,1-.88.87h-8.63a.88.88,0,0,1-.88-.87v-25c0-4.35,0-9.17-1.39-12.72-1.52-3.93-4.41-5.75-9.27-5.75-6,0-14.9,5-14.9,12V94.73a.89.89,0,0,1-.89.87Zm137.34,32.54a.87.87,0,0,1,.81.82,1.41,1.41,0,0,1,0,.41L657.9,183.44c-4.41,10.24-11.47,16.67-19.87,18.12h0a1,1,0,0,1-.69-.32l-4.69-5.73a.86.86,0,0,1-.15-.83.88.88,0,0,1,.62-.59c8.14-2,12.87-6.48,15.76-14.91L628,129.35a.85.85,0,0,1,0-.82.91.91,0,0,1,.74-.39h9a.88.88,0,0,1,.82.56l15.59,40,16-40a.85.85,0,0,1,.82-.55ZM407.09,20.77c19.91,0,36.1,17.11,36.1,38.13S427,97.12,407.09,97.12,371,79.93,371,58.9s16.18-38.13,36.07-38.13M432.8,58.9c0-16.11-11.52-29.22-25.71-29.22S381.36,42.79,381.36,58.9s11.55,29.22,25.73,29.22S432.8,75,432.8,58.9m51.77,69.24a.91.91,0,0,1,.63.25.85.85,0,0,1,.26.62v50.17a.87.87,0,0,1-.89.87h-7.9a.86.86,0,0,1-.87-.79l-.51-5a21.23,21.23,0,0,1-16.55,7.19c-13,0-19.64-8.48-19.64-25.23V129a.89.89,0,0,1,.89-.87h8.64a.91.91,0,0,1,.62.26.86.86,0,0,1,.25.61v25.08c0,4.55,0,9.17,1.38,12.74,1.54,3.92,4.43,5.74,9.28,5.74,6,0,14.91-5,14.91-12V129a.91.91,0,0,1,.25-.61.92.92,0,0,1,.63-.26Zm95.38.39a.87.87,0,0,1,.08.84L558.6,179.52a.86.86,0,0,1-.8.53h-8.29a.9.9,0,0,1-.81-.53l-21.12-50.17a.88.88,0,0,1,.08-.82.9.9,0,0,1,.73-.39h9a.86.86,0,0,1,.82.56l15.42,39.5,16-39.51a.85.85,0,0,1,.8-.55h8.79a.91.91,0,0,1,.74.39m24.73-1.82c15.4,0,23.88,10.13,23.88,28.58a.87.87,0,0,1-.24.62.94.94,0,0,1-.63.26h-37.9c.63,8.11,4.82,16.44,14.89,16.44,7.39,0,14-2.24,18.06-6.14a.93.93,0,0,1,.83-.22.82.82,0,0,1,.6.54l2.54,6.78a.9.9,0,0,1-.25,1c-6.77,5.77-15.58,7-21.78,7-15.15,0-25.35-11-25.35-27.42,0-15.9,10.67-27.41,25.35-27.41m-14.79,22H618c-1.52-8.86-5.8-13-13.35-13s-13.27,5.06-14.79,13M450.94,95.6a.87.87,0,0,1-.87-.87V44.64a.87.87,0,0,1,.87-.86h7.92a.87.87,0,0,1,.87.78l.46,4.56A15.4,15.4,0,0,1,473,42.29a23.22,23.22,0,0,1,5.5.76.88.88,0,0,1,.68.85v7.84a.89.89,0,0,1-.43.76.87.87,0,0,1-.88,0,8.17,8.17,0,0,0-5.31-1.33c-11.21,0-12.07,12.51-12.07,16.32V94.73a.88.88,0,0,1-.26.62.84.84,0,0,1-.63.25ZM781,42.29c15.4,0,23.88,10.12,23.88,28.51a.88.88,0,0,1-.87.88h-37.9C766.78,79.8,771,88.12,781,88.12c7.49,0,14-2.29,18.09-6.16a.88.88,0,0,1,.79-.23.93.93,0,0,1,.65.55l2.52,6.77a.84.84,0,0,1-.27,1.07c-6.76,5.79-15.57,7-21.78,7-15.15,0-25.33-11.05-25.33-27.42,0-15.89,10.65-27.41,25.33-27.41M766.25,64.22h28.14c-1.53-8.86-5.8-13-13.35-13s-13.28,5.08-14.79,13m-357.64,72c15.68,4.12,23.62,12.08,23.61,23.64-.06,12.75-9.89,21.65-23.89,21.65-10.45-.11-19.88-3.59-25.22-9.31a.87.87,0,0,1,0-1.1l4.51-6.45a.9.9,0,0,1,.63-.37.77.77,0,0,1,.68.22,30,30,0,0,0,19.42,8.07,12.43,12.43,0,0,0,9.17-3.61,12.3,12.3,0,0,0,3.62-9.15c.07-8.69-6.82-11.25-15.19-13.53-13.42-3.66-20.77-11.33-20.77-21.56,0-13.33,12-19.51,23.15-19.51a34.57,34.57,0,0,1,18.11,5.21.94.94,0,0,1,.39.58.81.81,0,0,1-.14.66l-4.42,6.26a.92.92,0,0,1-1.15.27,29.37,29.37,0,0,0-12.79-4c-6.29,0-12.77,3.27-12.77,10.6-.15,7.06,7.37,9.85,13.05,11.46m115-8.76a.91.91,0,0,1,.68.87v7.87a.88.88,0,0,1-.46.78.9.9,0,0,1-.87,0,8.2,8.2,0,0,0-5.32-1.33c-11.18,0-12.06,12.5-12.06,16.32v27.24a.87.87,0,0,1-.87.87h-8.64a.88.88,0,0,1-.88-.87V129a.87.87,0,0,1,.26-.61.9.9,0,0,1,.62-.26H504a.86.86,0,0,1,.87.79l.45,4.55a15.44,15.44,0,0,1,12.79-6.82,25.07,25.07,0,0,1,5.52.77M749.23,83.06a.81.81,0,0,1,.54.64L752,90.47a.89.89,0,0,1-.27,1c-4.58,3.77-10.71,5.69-18.22,5.69-15.34,0-26.07-11.61-26.07-27.51s11-27.41,26.17-27.41c3.76,0,13.1.72,18,7.43a.87.87,0,0,1,0,1l-3.64,5.25a.81.81,0,0,1-.68.39,1.24,1.24,0,0,1-.73-.34c-3.61-4.48-7.81-4.84-12.95-4.84-11.56,0-15.65,10-15.65,18.48,0,11.72,5.7,18.47,15.65,18.47a22.31,22.31,0,0,0,14.86-4.84.81.81,0,0,1,.8-.16M618.51,97.12c-14.67,0-25.32-11.59-25.32-27.42,0-16.94,13.13-27.41,25.32-27.41a21.85,21.85,0,0,1,16.59,7.28l.52-5.08a.87.87,0,0,1,.88-.79h7.91a.86.86,0,0,1,.87.86V94.83a.87.87,0,0,1-.87.87h-8.65a.87.87,0,0,1-.87-.87V90a22.17,22.17,0,0,1-16.38,7.13M603.58,69.7c0,8.88,4.11,18.42,15.65,18.47,9.8,0,15.66-9.4,15.66-18.47,0-11.57-5.86-18.47-15.66-18.47-10.8,0-15.65,9.58-15.65,18.47m78.14-27.41c13,0,19.65,8.47,19.59,25.2V94.73a.88.88,0,0,1-.88.87h-8.64a.88.88,0,0,1-.88-.87v-25c0-4.35,0-9.17-1.37-12.72-1.54-3.93-4.43-5.75-9.29-5.75-6,0-14.9,5-14.9,12V94.73a.91.91,0,0,1-.26.62.9.9,0,0,1-.62.25h-8.64a.87.87,0,0,1-.87-.87V44.6a.87.87,0,0,1,.87-.87h8a.89.89,0,0,1,.88.79l.5,5a21.28,21.28,0,0,1,16.55-7.2"/><path class="cls-1" d="M383.8,317.61v-7.2s5.87,6,11.67,6c4.29,0,6.35-2.65,6.35-5.43,0-3.27-3.27-5.81-9.25-9.2-8-4.59-9.07-7.91-9.07-12.21s4.53-10.46,12.27-10.46a18.14,18.14,0,0,1,10.28,2.73v6a17.26,17.26,0,0,0-9.73-3.51c-4.66,0-6.9,2.78-6.9,4.66,0,3.45,2.72,5,8.53,8.34S408,304.36,408,311.14,402.42,322,395.47,322C387.73,322,383.8,317.61,383.8,317.61Z"/><path class="cls-1" d="M418.45,279.7h24.49V285H424.37V297.9h16.45v5.32H424.37v12.87h18.57v5.32H418.45Z"/><path class="cls-1" d="M454.25,279.7h24.48V285H460.17V297.9h16.45v5.32H460.17v12.87h18.56v5.32H454.25Z"/><path class="cls-1" d="M579.24,279.7h14.45c6,0,11.37,4.59,11.37,10.64,0,7.44-4.72,9.13-4.72,9.13s8.28,2.78,8.28,10.76c0,6.1-5.68,11.18-12.63,11.18H579.24Zm12.09,18.2c4,0,7.62-1.7,7.62-7A5.58,5.58,0,0,0,593,285h-7.86V297.9Zm2.36,18.19c4.84,0,8.77-1.51,8.77-5.92,0-5.56-4.23-6.95-11-6.95h-6.34v12.87Z"/><path class="cls-1" d="M619,279.7h24.49V285H625V297.9H641.4v5.32H625v12.87h18.57v5.32H619Z"/><path class="cls-1" d="M667.59,285H653V279.7h35.06V285H673.51v36.39h-5.92Z"/><path class="cls-1" d="M710.34,285H695.77V279.7h35.06V285H716.26v36.39h-5.92Z"/><path class="cls-1" d="M740.34,279.7h24.48V285H746.26V297.9H762.7v5.32H746.26v12.87h18.56v5.32H740.34Z"/><path class="cls-1" d="M776.13,279.7h10.22c8,0,13.79,3.26,13.79,11.49,0,5.56-2.79,8.76-6.35,10.46a18.6,18.6,0,0,1,4.05,4.11c2.36,2.9,6.29,9.91,10.64,15.65h-7.26s-8-12.69-10.15-15c-2.72-3-4.54-3.39-5.93-3.39h-3.08v18.38h-5.93Zm9.92,18c5.56,0,8.1-3.26,8.1-6.59,0-5-3.93-6.1-8-6.1h-4.05v12.69Z"/><path class="cls-1" d="M838.06,279.7h12.51c8,0,13.79,3.26,13.79,11.49,0,8.88-7.2,11.84-13.18,11.84H844v18.38h-5.92Zm12.21,18c5.56,0,8.1-3.26,8.1-6.59,0-5-3.93-6.1-8-6.1H844v12.69Z"/><path class="cls-1" d="M874.46,279.7h5.92v36.39h19.17v5.32H874.46Z"/><path class="cls-1" d="M924,279.7h4.24l19.16,41.71h-6l-5.62-12.21h-18l-5.08,12.21h-6Zm9.31,24.18-7-15.17-6.35,15.17Z"/><path class="cls-1" d="M952.05,300.37c0-11.84,9.06-21.22,23-21.22a28.87,28.87,0,0,1,13.12,3.33v6a26.5,26.5,0,0,0-13.12-3.87c-6.23,0-16.81,4-16.81,15.77s10.58,16,16.81,16a23.15,23.15,0,0,0,13.12-4.05v6.17S984.09,322,975.08,322C964,322,952.05,314.76,952.05,300.37Z"/><path class="cls-1" d="M999.51,279.7H1024V285h-18.56V297.9h16.44v5.32h-16.44v12.87H1024v5.32H999.51Z"/><path class="cls-1" d="M551.9,297.53v4.24l-41.71,19.16v-6.05l12.21-5.62V291.31l-12.21-5.08v-6.05Zm-24.18,9.31,15.17-7-15.17-6.35Z"/></svg>